<mxfile host="app.diagrams.net" agent="Mozilla/5.0 (Windows NT 10.0; Win64; x64) AppleWebKit/537.36 (KHTML, like Gecko) Chrome/136.0.0.0 Safari/537.36" version="27.0.8">
  <diagram name="第 1 页" id="bHcTDLf7TKKdNk15PB5Z">
    <mxGraphModel dx="378" dy="225" grid="1" gridSize="10" guides="1" tooltips="1" connect="1" arrows="1" fold="1" page="1" pageScale="1" pageWidth="827" pageHeight="1169" math="0" shadow="0">
      <root>
        <mxCell id="0" />
        <mxCell id="1" parent="0" />
        <mxCell id="YLqs5a6kLeAyBYIjlwHh-1" value="User" style="shape=umlActor;verticalLabelPosition=bottom;verticalAlign=top;html=1;rounded=0;labelBackgroundColor=none;fillColor=#F2CC8F;strokeColor=#E07A5F;fontColor=#393C56;" vertex="1" parent="1">
          <mxGeometry x="44" y="100" width="30" height="60" as="geometry" />
        </mxCell>
        <mxCell id="YLqs5a6kLeAyBYIjlwHh-2" value="controller:&lt;br&gt;carChargeController" style="rounded=0;whiteSpace=wrap;html=1;labelBackgroundColor=none;fillColor=#F2CC8F;strokeColor=#E07A5F;fontColor=#393C56;" vertex="1" parent="1">
          <mxGeometry x="138.37" y="230" width="120" height="60" as="geometry" />
        </mxCell>
        <mxCell id="YLqs5a6kLeAyBYIjlwHh-4" value="" style="endArrow=classic;dashed=1;html=1;rounded=0;entryX=0;entryY=0.5;entryDx=0;entryDy=0;startArrow=none;startFill=0;endFill=1;labelBackgroundColor=none;strokeColor=#E07A5F;fontColor=default;" edge="1" parent="1" source="YLqs5a6kLeAyBYIjlwHh-1" target="YLqs5a6kLeAyBYIjlwHh-26">
          <mxGeometry width="50" height="50" relative="1" as="geometry">
            <mxPoint x="14" y="158" as="sourcePoint" />
            <mxPoint x="124" y="140" as="targetPoint" />
          </mxGeometry>
        </mxCell>
        <mxCell id="YLqs5a6kLeAyBYIjlwHh-11" value="theQueue:&lt;div&gt;Queue&lt;/div&gt;" style="rounded=0;whiteSpace=wrap;html=1;labelBackgroundColor=none;fillColor=#F2CC8F;strokeColor=#E07A5F;fontColor=#393C56;" vertex="1" parent="1">
          <mxGeometry x="490" y="302" width="120" height="60" as="geometry" />
        </mxCell>
        <mxCell id="YLqs5a6kLeAyBYIjlwHh-14" value=":DBFacade" style="rounded=0;whiteSpace=wrap;html=1;labelBackgroundColor=none;fillColor=#F2CC8F;strokeColor=#E07A5F;fontColor=#393C56;" vertex="1" parent="1">
          <mxGeometry x="424.37" y="230" width="120" height="60" as="geometry" />
        </mxCell>
        <mxCell id="YLqs5a6kLeAyBYIjlwHh-17" value="1.1:theCar=get(id,Car)" style="text;html=1;align=center;verticalAlign=middle;resizable=0;points=[];autosize=1;strokeColor=none;fillColor=none;rounded=0;labelBackgroundColor=none;fontColor=#393C56;" vertex="1" parent="1">
          <mxGeometry x="270" y="220" width="140" height="30" as="geometry" />
        </mxCell>
        <mxCell id="YLqs5a6kLeAyBYIjlwHh-19" value="" style="endArrow=classic;html=1;rounded=0;labelBackgroundColor=none;strokeColor=#E07A5F;fontColor=default;exitX=0.099;exitY=-0.003;exitDx=0;exitDy=0;exitPerimeter=0;" edge="1" parent="1">
          <mxGeometry width="50" height="50" relative="1" as="geometry">
            <mxPoint x="278.9100000000001" y="249.66000000000003" as="sourcePoint" />
            <mxPoint x="401.09000000000003" y="249.75" as="targetPoint" />
          </mxGeometry>
        </mxCell>
        <mxCell id="YLqs5a6kLeAyBYIjlwHh-22" value="" style="endArrow=none;html=1;rounded=0;entryX=0;entryY=0.5;entryDx=0;entryDy=0;labelBackgroundColor=none;strokeColor=#E07A5F;fontColor=default;exitX=0.75;exitY=1;exitDx=0;exitDy=0;" edge="1" parent="1" source="YLqs5a6kLeAyBYIjlwHh-2" target="YLqs5a6kLeAyBYIjlwHh-11">
          <mxGeometry width="50" height="50" relative="1" as="geometry">
            <mxPoint x="230.0000000000001" y="290" as="sourcePoint" />
            <mxPoint x="230" y="312.71067811865476" as="targetPoint" />
            <Array as="points">
              <mxPoint x="228" y="330" />
            </Array>
          </mxGeometry>
        </mxCell>
        <mxCell id="YLqs5a6kLeAyBYIjlwHh-28" value="" style="edgeStyle=orthogonalEdgeStyle;rounded=0;orthogonalLoop=1;jettySize=auto;html=1;endArrow=none;startFill=0;labelBackgroundColor=none;strokeColor=#E07A5F;fontColor=default;" edge="1" parent="1" source="YLqs5a6kLeAyBYIjlwHh-26" target="YLqs5a6kLeAyBYIjlwHh-2">
          <mxGeometry relative="1" as="geometry" />
        </mxCell>
        <mxCell id="YLqs5a6kLeAyBYIjlwHh-26" value=":&amp;lt;&amp;lt;UI&amp;gt;&amp;gt;&lt;div&gt;waiting&lt;/div&gt;&lt;div&gt;Window&lt;/div&gt;" style="rounded=0;whiteSpace=wrap;html=1;labelBackgroundColor=none;fillColor=#F2CC8F;strokeColor=#E07A5F;fontColor=#393C56;" vertex="1" parent="1">
          <mxGeometry x="138.37" y="100" width="120" height="60" as="geometry" />
        </mxCell>
        <mxCell id="YLqs5a6kLeAyBYIjlwHh-29" value="" style="endArrow=classic;html=1;rounded=0;strokeColor=#E07A5F;fontColor=#393C56;fillColor=#F2CC8F;" edge="1" parent="1">
          <mxGeometry width="50" height="50" relative="1" as="geometry">
            <mxPoint x="210" y="170" as="sourcePoint" />
            <mxPoint x="210" y="220" as="targetPoint" />
          </mxGeometry>
        </mxCell>
        <mxCell id="YLqs5a6kLeAyBYIjlwHh-30" value="1.Query_Car_State(car_id)" style="text;html=1;align=center;verticalAlign=middle;resizable=0;points=[];autosize=1;strokeColor=none;fillColor=none;fontColor=#393C56;" vertex="1" parent="1">
          <mxGeometry x="200" y="179.6" width="170" height="30" as="geometry" />
        </mxCell>
        <mxCell id="YLqs5a6kLeAyBYIjlwHh-31" value="controller:&lt;br&gt;carChargeController" style="rounded=0;whiteSpace=wrap;html=1;labelBackgroundColor=none;fillColor=#F2CC8F;strokeColor=#E07A5F;fontColor=#393C56;" vertex="1" parent="1">
          <mxGeometry x="138.37" y="362" width="120" height="60" as="geometry" />
        </mxCell>
        <mxCell id="YLqs5a6kLeAyBYIjlwHh-35" value="" style="endArrow=none;html=1;rounded=0;strokeColor=#E07A5F;fontColor=#393C56;fillColor=#F2CC8F;entryX=0;entryY=0.5;entryDx=0;entryDy=0;" edge="1" parent="1" source="YLqs5a6kLeAyBYIjlwHh-2" target="YLqs5a6kLeAyBYIjlwHh-14">
          <mxGeometry width="50" height="50" relative="1" as="geometry">
            <mxPoint x="258.37" y="310" as="sourcePoint" />
            <mxPoint x="329.08067811865476" y="260" as="targetPoint" />
          </mxGeometry>
        </mxCell>
        <mxCell id="YLqs5a6kLeAyBYIjlwHh-36" value="1.2:gets(car_Number_before_position,&lt;div&gt;car_state,queue_Num,request_time)&lt;/div&gt;" style="text;html=1;align=center;verticalAlign=middle;resizable=0;points=[];autosize=1;strokeColor=none;fillColor=none;fontColor=#393C56;" vertex="1" parent="1">
          <mxGeometry x="260" y="342" width="230" height="40" as="geometry" />
        </mxCell>
        <mxCell id="YLqs5a6kLeAyBYIjlwHh-37" value="2:[eligible=ture]&lt;div&gt;create(thePile,controller)&lt;/div&gt;" style="text;html=1;align=center;verticalAlign=middle;resizable=0;points=[];autosize=1;strokeColor=none;fillColor=none;fontColor=#393C56;" vertex="1" parent="1">
          <mxGeometry x="40" y="302" width="150" height="40" as="geometry" />
        </mxCell>
        <mxCell id="YLqs5a6kLeAyBYIjlwHh-38" value="" style="endArrow=none;html=1;rounded=0;strokeColor=#E07A5F;fontColor=#393C56;fillColor=#F2CC8F;" edge="1" parent="1" source="YLqs5a6kLeAyBYIjlwHh-2">
          <mxGeometry width="50" height="50" relative="1" as="geometry">
            <mxPoint x="198.37" y="340" as="sourcePoint" />
            <mxPoint x="198.37" y="360.71067811865476" as="targetPoint" />
          </mxGeometry>
        </mxCell>
        <mxCell id="YLqs5a6kLeAyBYIjlwHh-41" value="" style="endArrow=classic;html=1;rounded=0;strokeColor=#E07A5F;fontColor=#393C56;fillColor=#F2CC8F;" edge="1" parent="1">
          <mxGeometry width="50" height="50" relative="1" as="geometry">
            <mxPoint x="190" y="302" as="sourcePoint" />
            <mxPoint x="190" y="352" as="targetPoint" />
          </mxGeometry>
        </mxCell>
        <mxCell id="YLqs5a6kLeAyBYIjlwHh-42" value="" style="endArrow=classic;html=1;rounded=0;labelBackgroundColor=none;strokeColor=#E07A5F;fontColor=default;exitX=0.099;exitY=-0.003;exitDx=0;exitDy=0;exitPerimeter=0;" edge="1" parent="1">
          <mxGeometry width="50" height="50" relative="1" as="geometry">
            <mxPoint x="270" y="342" as="sourcePoint" />
            <mxPoint x="480" y="342" as="targetPoint" />
          </mxGeometry>
        </mxCell>
      </root>
    </mxGraphModel>
  </diagram>
</mxfile>
